<svg width="200" height="200" viewBox="0 0 200 200" fill="none" xmlns="http://www.w3.org/2000/svg">
<path d="M109.309 200C157.333 200 196.264 160.689 196.264 112.197C196.264 63.7041 157.333 24.3931 109.309 24.3931C61.2854 24.3931 22.3544 63.7041 22.3544 112.197C22.3544 160.689 61.2854 200 109.309 200Z" fill="#FEFEFE"/>
<path fill-rule="evenodd" clip-rule="evenodd" d="M148.692 178.461C149.472 179.048 149.309 179.135 149.635 180.157L148.789 180.717C145.398 181.813 138.292 184.932 135.063 184.755C133.991 182.087 138.255 180.345 135.763 175.761C132.843 170.391 121.829 173.706 122.508 180.391C123.037 185.595 127.553 184.284 127.61 186.943C127.357 189.382 114.536 192.947 112.48 193.289C111.237 188.881 111.253 180.101 109.966 178.545C107.627 175.716 106.544 182.393 103.106 183.306C97.35 184.836 93.4973 173.096 100.189 171.072C104.166 169.869 104.369 174.394 107.863 171.559C107.741 167.24 104.138 163.239 103.618 158.685C106.507 155.441 116.691 155.157 118.865 152.232C119.265 148.978 114.939 150.027 113.726 146.06C111.909 140.115 123.271 136.478 125.65 142.501C127.293 146.662 122.458 147.299 125.07 150.339C127.886 152.055 135.487 145.855 139.099 147.676C141.445 151.054 139.357 158.643 142.36 160.476C144.606 160.295 144.877 158.068 145.968 156.753C150.897 150.814 157.703 161.048 153.759 165.768C149.311 171.091 145.338 162.686 143.552 167.303C142.685 169.544 147.739 175.536 148.692 178.462V178.461ZM108.37 179.201L108.874 178.721C108.881 178.728 109.527 179.307 109.529 179.309C110.322 180.63 109.697 179.988 109.671 180.258C110.471 183.496 110.534 191.654 111.858 193.965C114.564 194.816 126.982 189.82 128.633 187.921C128.399 183.003 124.859 185.321 123.629 181.399C121.563 174.813 133.161 170.998 135.277 176.876C136.757 180.985 132.917 181.986 134.194 185.071C136.427 186.309 139.542 184.795 142.575 183.858C145.06 183.091 148.739 182.103 150.272 180.458C150.066 176.702 143.532 170.049 144.567 167.595C146.421 164.863 148.071 170.768 153.138 167.531C158.437 164.146 154.99 152.936 148.633 154.156C143.979 155.05 144.845 159.279 142.375 159.494C140.422 156.881 142.634 148.71 139.291 146.734C136.779 145.248 128.633 149.668 125.62 149.824C124.471 147.284 128.851 146.063 126.027 141.244C122.763 135.676 111.735 139.388 112.654 145.423C113.37 150.125 117.35 149.493 118.083 151.807C115.144 154.252 105.748 154.924 102.669 158.375C102.942 161.924 107.381 169.109 106.771 171.227C104.439 172.766 103.34 168.09 98.6976 170.736C96.1169 172.207 95.2281 174.985 96.0503 178.395C96.8522 181.719 99.2056 184.361 101.879 184.384C106.412 184.422 106.51 180.533 108.37 179.201L108.37 179.201Z" fill="#F58634" stroke="#F58634" stroke-width="0.199983" stroke-miterlimit="22.9256"/>
<path fill-rule="evenodd" clip-rule="evenodd" d="M102.099 46.2607C101.204 46.935 101.391 47.0334 101.017 48.2071L101.988 48.8497C105.879 50.1075 114.035 53.6872 117.741 53.4845C118.971 50.4223 114.077 48.4225 116.937 43.1624C120.289 36.9998 132.929 40.8031 132.149 48.4758C131.542 54.4479 126.359 52.9435 126.294 55.9954C126.585 58.7946 141.299 62.886 143.658 63.2783C145.085 58.2192 145.066 48.1426 146.543 46.3566C149.228 43.1098 150.471 50.773 154.416 51.8215C161.022 53.5772 165.444 40.1039 157.764 37.7808C153.199 36.4002 152.967 41.5927 148.956 38.3393C149.097 33.3824 153.231 28.7912 153.829 23.5652C150.513 19.8411 138.825 19.5161 136.331 16.1593C135.872 12.4244 140.836 13.6281 142.228 9.0759C144.313 2.2535 131.274 -1.92124 128.544 4.99151C126.658 9.76624 132.207 10.497 129.209 13.9861C125.978 15.9551 117.254 8.84078 113.108 10.9296C110.416 14.8072 112.812 23.5169 109.367 25.6197C106.788 25.412 106.478 22.8567 105.226 21.3478C99.5687 14.5315 91.7571 26.2759 96.2845 31.6937C101.39 37.8024 105.948 28.1559 107.999 33.455C108.993 36.0268 103.193 42.9033 102.099 46.261V46.2607ZM148.375 47.1094L147.797 46.5588C147.788 46.5665 147.047 47.2322 147.045 47.2346C146.135 48.7506 146.852 48.0131 146.882 48.3226C145.964 52.0384 145.891 61.4019 144.371 64.0546C141.266 65.0308 127.015 59.2968 125.121 57.1176C125.389 51.4733 129.451 54.1343 130.863 49.6333C133.234 42.0748 119.924 37.696 117.495 44.4422C115.796 49.1574 120.203 50.306 118.739 53.847C116.176 55.2673 112.6 53.5302 109.12 52.4551C106.268 51.574 102.045 50.4401 100.286 48.5529C100.522 44.2427 108.022 36.6073 106.833 33.7905C104.706 30.6557 102.812 37.4318 96.9965 33.7171C90.9155 29.8325 94.871 16.9674 102.166 18.3681C107.508 19.3936 106.514 24.2462 109.349 24.4937C111.591 21.4947 109.052 12.1178 112.888 9.84914C115.772 8.14401 125.12 13.2162 128.578 13.396C129.896 10.4807 124.87 9.07926 128.111 3.54909C131.856 -2.84086 144.513 1.41925 143.458 8.34513C142.636 13.741 138.07 13.0152 137.228 15.6715C140.601 18.478 151.384 19.2492 154.918 23.2096C154.605 27.2822 149.51 35.5285 150.21 37.9584C152.887 39.7254 154.147 34.359 159.476 37.3958C162.437 39.0837 163.457 42.2718 162.513 46.1847C161.593 50.0004 158.892 53.0329 155.825 53.0588C150.622 53.1031 150.509 48.6394 148.375 47.1096L148.375 47.1094Z" fill="#F58634" stroke="#F58634" stroke-width="0.199983" stroke-miterlimit="22.9256"/>
<path fill-rule="evenodd" clip-rule="evenodd" d="M16.0522 117.424L16.9663 117.088C16.9723 117.1 17.4869 118.211 17.4876 118.214C17.7844 120.362 17.3308 119.183 17.1491 119.517C16.4006 124.141 11.9972 134.7 12.4344 138.423C15.456 141.037 34.2206 141.554 37.3925 140.03C39.7947 133.555 33.9548 134.561 34.5245 128.814C35.4808 119.161 52.5372 120.742 52.0357 129.51C51.6853 135.638 46.1826 134.777 46.1323 139.472C48.3322 142.319 53.1826 142.114 57.6091 142.606C61.2363 143.008 66.5248 143.797 69.4057 142.535C71.2052 137.576 66.4349 125.332 69.12 122.746C73.0133 120.263 71.8953 128.803 80.2103 127.469C88.9053 126.074 90.6227 109.683 81.7529 107.693C75.2585 106.237 74.0512 112.176 70.7463 111.07C69.664 106.605 77.0098 97.3058 73.7847 92.8825C71.3605 89.5573 58.425 90.6924 54.4516 89.2043C54.3671 85.2844 60.6879 86.165 59.6942 78.3668C58.5466 69.3559 42.2818 67.9611 40.149 76.26C38.4879 82.7262 43.9675 84.1409 43.6407 87.5369C38.5054 89.0434 26.0183 84.6431 20.149 87.3682C18.5498 92.0982 20.3254 103.854 18.3747 106.243C14.52 106.921 15.6741 100.275 8.2308 101.084C4.09368 101.535 1.42029 104.62 0.606252 109.478C-0.18712 114.215 1.39514 118.943 4.82996 120.471C10.6557 123.062 12.9211 118.101 16.0519 117.424L16.0522 117.424Z" fill="#F58634" stroke="#F58634" stroke-width="0.199983" stroke-miterlimit="22.9256"/>
<path fill-rule="evenodd" clip-rule="evenodd" d="M181.778 137.97C182.46 139.165 182.204 139.185 182.062 140.686L180.662 140.934C175.686 140.447 164.806 140.486 160.738 138.449C160.822 134.406 167.281 134.549 166.586 127.24C165.772 118.678 149.744 116.778 146.945 125.781C144.765 132.79 151.311 133.631 149.923 137.093C148.255 140.096 129.759 137.507 126.919 136.796C127.739 130.414 132.587 119.098 131.783 116.369C130.322 111.409 125.254 119.414 120.317 118.665C112.053 117.412 113.537 100.11 123.282 101.251C129.072 101.928 126.846 107.877 132.913 106.18C135.129 100.54 132.682 93.3611 134.514 87.196C140.024 84.6299 153.315 89.9734 157.727 87.4193C160.033 83.4466 153.877 82.3746 154.493 76.5785C155.417 67.8922 172.072 69.5697 171.828 78.6719C171.66 84.9592 165.074 83.0702 166.772 88.4559C169.46 92.2469 182.673 88.5129 186.331 92.885C187.499 98.5579 180.634 107.176 183.499 111.222C186.496 112.248 188.068 109.528 190.199 108.444C199.822 103.546 202.975 120.561 195.291 124.438C186.627 128.81 186.125 115.742 181.282 120.696C178.932 123.1 182.157 133.662 181.778 137.97L181.778 137.97Z" fill="#F58634" stroke="#F58634" stroke-width="0.199983" stroke-miterlimit="22.9256"/>
</svg>
